name C:\Users\u0101727\Documents\MyRepositories\upper-imu-dc\OpenSim\subject0\MA\MA_Splines\angle_in_n6_dof6_0.mot
datacolumns 7
datarows 54
range 75.01000000 75.54000000
endheader 
time	clav_prot	clav_elev	scapula_abduction	scapula_elevation	scapula_upward_rot	scapula_winging	
         75.01000000	        -49.02793530	          2.15399008	          1.54938583	          4.10553212	         85.49388449	        -16.84364364	
         75.02000000	        -42.60353533	          2.15399008	          1.54938583	          4.10553212	         85.49388449	        -16.84364364	
         75.03000000	        -36.17913537	          2.15399008	          1.54938583	          4.10553212	         85.49388449	        -16.84364364	
         75.04000000	        -29.75473540	          2.15399008	          1.54938583	          4.10553212	         85.49388449	        -16.84364364	
         75.05000000	        -23.33033544	          2.15399008	          1.54938583	          4.10553212	         85.49388449	        -16.84364364	
         75.06000000	        -16.90593547	          2.15399008	          1.54938583	          4.10553212	         85.49388449	        -16.84364364	
         75.07000000	        -49.02793530	          7.05722688	          1.54938583	          4.10553212	         85.49388449	        -16.84364364	
         75.08000000	        -42.60353533	          7.05722688	          1.54938583	          4.10553212	         85.49388449	        -16.84364364	
         75.09000000	        -36.17913537	          7.05722688	          1.54938583	          4.10553212	         85.49388449	        -16.84364364	
         75.10000000	        -29.75473540	          7.05722688	          1.54938583	          4.10553212	         85.49388449	        -16.84364364	
         75.11000000	        -23.33033544	          7.05722688	          1.54938583	          4.10553212	         85.49388449	        -16.84364364	
         75.12000000	        -16.90593547	          7.05722688	          1.54938583	          4.10553212	         85.49388449	        -16.84364364	
         75.13000000	        -49.02793530	         11.96046367	          1.54938583	          4.10553212	         85.49388449	        -16.84364364	
         75.14000000	        -42.60353533	         11.96046367	          1.54938583	          4.10553212	         85.49388449	        -16.84364364	
         75.15000000	        -36.17913537	         11.96046367	          1.54938583	          4.10553212	         85.49388449	        -16.84364364	
         75.16000000	        -29.75473540	         11.96046367	          1.54938583	          4.10553212	         85.49388449	        -16.84364364	
         75.17000000	        -23.33033544	         11.96046367	          1.54938583	          4.10553212	         85.49388449	        -16.84364364	
         75.18000000	        -16.90593547	         11.96046367	          1.54938583	          4.10553212	         85.49388449	        -16.84364364	
         75.19000000	        -49.02793530	         16.86370047	          1.54938583	          4.10553212	         85.49388449	        -16.84364364	
         75.20000000	        -42.60353533	         16.86370047	          1.54938583	          4.10553212	         85.49388449	        -16.84364364	
         75.21000000	        -36.17913537	         16.86370047	          1.54938583	          4.10553212	         85.49388449	        -16.84364364	
         75.22000000	        -29.75473540	         16.86370047	          1.54938583	          4.10553212	         85.49388449	        -16.84364364	
         75.23000000	        -23.33033544	         16.86370047	          1.54938583	          4.10553212	         85.49388449	        -16.84364364	
         75.24000000	        -16.90593547	         16.86370047	          1.54938583	          4.10553212	         85.49388449	        -16.84364364	
         75.25000000	        -49.02793530	         -7.65248351	         11.28790885	          4.10553212	         85.49388449	        -16.84364364	
         75.26000000	        -42.60353533	         -7.65248351	         11.28790885	          4.10553212	         85.49388449	        -16.84364364	
         75.27000000	        -36.17913537	         -7.65248351	         11.28790885	          4.10553212	         85.49388449	        -16.84364364	
         75.28000000	        -29.75473540	         -7.65248351	         11.28790885	          4.10553212	         85.49388449	        -16.84364364	
         75.29000000	        -23.33033544	         -7.65248351	         11.28790885	          4.10553212	         85.49388449	        -16.84364364	
         75.30000000	        -16.90593547	         -7.65248351	         11.28790885	          4.10553212	         85.49388449	        -16.84364364	
         75.31000000	        -49.02793530	         -2.74924671	         11.28790885	          4.10553212	         85.49388449	        -16.84364364	
         75.32000000	        -42.60353533	         -2.74924671	         11.28790885	          4.10553212	         85.49388449	        -16.84364364	
         75.33000000	        -36.17913537	         -2.74924671	         11.28790885	          4.10553212	         85.49388449	        -16.84364364	
         75.34000000	        -29.75473540	         -2.74924671	         11.28790885	          4.10553212	         85.49388449	        -16.84364364	
         75.35000000	        -23.33033544	         -2.74924671	         11.28790885	          4.10553212	         85.49388449	        -16.84364364	
         75.36000000	        -16.90593547	         -2.74924671	         11.28790885	          4.10553212	         85.49388449	        -16.84364364	
         75.37000000	        -49.02793530	          2.15399008	         11.28790885	          4.10553212	         85.49388449	        -16.84364364	
         75.38000000	        -42.60353533	          2.15399008	         11.28790885	          4.10553212	         85.49388449	        -16.84364364	
         75.39000000	        -36.17913537	          2.15399008	         11.28790885	          4.10553212	         85.49388449	        -16.84364364	
         75.40000000	        -29.75473540	          2.15399008	         11.28790885	          4.10553212	         85.49388449	        -16.84364364	
         75.41000000	        -23.33033544	          2.15399008	         11.28790885	          4.10553212	         85.49388449	        -16.84364364	
         75.42000000	        -16.90593547	          2.15399008	         11.28790885	          4.10553212	         85.49388449	        -16.84364364	
         75.43000000	        -49.02793530	          7.05722688	         11.28790885	          4.10553212	         85.49388449	        -16.84364364	
         75.44000000	        -42.60353533	          7.05722688	         11.28790885	          4.10553212	         85.49388449	        -16.84364364	
         75.45000000	        -36.17913537	          7.05722688	         11.28790885	          4.10553212	         85.49388449	        -16.84364364	
         75.46000000	        -29.75473540	          7.05722688	         11.28790885	          4.10553212	         85.49388449	        -16.84364364	
         75.47000000	        -23.33033544	          7.05722688	         11.28790885	          4.10553212	         85.49388449	        -16.84364364	
         75.48000000	        -16.90593547	          7.05722688	         11.28790885	          4.10553212	         85.49388449	        -16.84364364	
         75.49000000	        -49.02793530	         11.96046367	         11.28790885	          4.10553212	         85.49388449	        -16.84364364	
         75.50000000	        -42.60353533	         11.96046367	         11.28790885	          4.10553212	         85.49388449	        -16.84364364	
         75.51000000	        -36.17913537	         11.96046367	         11.28790885	          4.10553212	         85.49388449	        -16.84364364	
         75.52000000	        -29.75473540	         11.96046367	         11.28790885	          4.10553212	         85.49388449	        -16.84364364	
         75.53000000	        -23.33033544	         11.96046367	         11.28790885	          4.10553212	         85.49388449	        -16.84364364	
         75.54000000	        -16.90593547	         11.96046367	         11.28790885	          4.10553212	         85.49388449	        -16.84364364	
